<?xml version="1.0" encoding="UTF-8" standalone="no" ?>
<!DOCTYPE svg PUBLIC "-//W3C//DTD SVG 1.1//EN" "http://www.w3.org/Graphics/SVG/1.1/DTD/svg11.dtd">
<svg xmlns="http://www.w3.org/2000/svg" xmlns:xlink="http://www.w3.org/1999/xlink" version="1.1" width="1080" height="1080" viewBox="0 0 1080 1080" xml:space="preserve">
<desc>Created with Fabric.js 5.2.4</desc>
<defs>
</defs>
<g transform="matrix(1 0 0 1 540 540)" id="a5390a53-5a51-46bc-89e6-b3d3e6a6894e"  >
<rect style="stroke: none; stroke-width: 1; stroke-dasharray: none; stroke-linecap: butt; stroke-dashoffset: 0; stroke-linejoin: miter; stroke-miterlimit: 4; fill: rgb(255,255,255); fill-rule: nonzero; opacity: 1; visibility: hidden;" vector-effect="non-scaling-stroke"  x="-540" y="-540" rx="0" ry="0" width="1080" height="1080" />
</g>
<g transform="matrix(1 0 0 1 540 540)" id="d61f096c-1f2e-4322-b45b-47931e2f6624"  >
</g>
<g transform="matrix(10.8 0 0 10.8 540 540)"  >
<g style=""   >
		<g transform="matrix(27.84 0 0 27.84 38.9 -2.93)" id="SvgjsG10244"  >
<path style="stroke: none; stroke-width: 1; stroke-dasharray: none; stroke-linecap: butt; stroke-dashoffset: 0; stroke-linejoin: miter; stroke-miterlimit: 4; fill: rgb(0,0,0); fill-rule: nonzero; opacity: 1;" vector-effect="non-scaling-stroke"  transform=" translate(-3.9, -2.41)" d="M 3.93809 2.38489 C 3.94696 2.49864 3.9148799999999997 2.52934 3.82156 2.5143 C 3.801483915747426 2.5461976238836144 3.7783588000691135 2.5760710535506015 3.75251 2.6035 C 3.7235460338896775 2.617480949509084 3.6890725672063374 2.6131541275076375 3.6644621127440042 2.5924489635823535 C 3.6398516582816707 2.5717437996570696 3.6296906047694892 2.5385188950624413 3.63851 2.50759 C 3.6510800000000003 2.45659 3.6906000000000003 2.43926 3.7686 2.45278 C 3.771094775610255 2.4383011238427605 3.7745694277839204 2.4240082757668566 3.779 2.41 C 3.7852730225199567 2.395895790056548 3.7924306038986195 2.382201863947113 3.80043 2.369 L 3.79833 2.3607 C 3.76585 2.3304 3.7435 2.29709 3.76617 2.25094 C 3.786613805817145 2.212716246745108 3.8309382570245685 2.1939139527705893 3.87263 2.20578 C 3.93692 2.21271 4.00111 2.22048 4.06527 2.2285399999999997 C 4.077490388598681 2.23019031083225 4.089464871250273 2.233319928844388 4.10093 2.23786 C 4.142996549163759 2.249931582394404 4.168316937139268 2.29275045394477 4.158625758206899 2.3354283019569726 C 4.148934579274529 2.378106149969175 4.107604561093032 2.4057902140710032 4.06445 2.39851 C 4.043 2.39681 4.0218 2.3922499999999998 4.0003899999999994 2.38986 C 3.98085 2.38771 3.96117 2.38669 3.93809 2.38489 Z" stroke-linecap="round" />
</g>
		<g transform="matrix(27.84 0 0 27.84 16.71 -13.85)" id="SvgjsG10244"  >
<path style="stroke: none; stroke-width: 1; stroke-dasharray: none; stroke-linecap: butt; stroke-dashoffset: 0; stroke-linejoin: miter; stroke-miterlimit: 4; fill: rgb(0,0,0); fill-rule: nonzero; opacity: 1;" vector-effect="non-scaling-stroke"  transform=" translate(-3.1, -2.01)" d="M 3.04423 2.27006 C 2.97458 2.26894 2.93258 2.22414 2.94878 2.1762799999999998 C 2.97731 2.0919899999999996 3.01518 2.01083 3.04996 1.9287099999999997 C 3.054178467102449 1.9203813650798685 3.0608855698309694 1.9135729043632674 3.06915 1.9092299999999998 C 3.089709785738519 1.90103295714585 3.09988443241495 1.8778516833613872 3.092 1.85717 C 3.0825625693027225 1.816005083948681 3.107140947748157 1.774690335658908 3.1478200000000003 1.76334 C 3.186158866864385 1.7519236352632441 3.2273124098528068 1.7683999631625942 3.24718 1.8031199999999998 C 3.267629300115706 1.8417718499939022 3.2545488136171237 1.8896606970176504 3.21729 1.9125499999999998 C 3.197117104204134 1.9213315807678437 3.1870982222203663 1.9441572075482532 3.19429 1.9649499999999998 C 3.196489969025332 1.9771347541555693 3.195278691248445 1.9896905135114151 3.1907900000000002 2.0012299999999996 C 3.1634800000000003 2.0716099999999997 3.13852 2.1432899999999995 3.1050400000000002 2.2106899999999996 C 3.0912 2.2386 3.05819 2.257 3.04423 2.27006 Z" stroke-linecap="round" />
</g>
		<g transform="matrix(27.84 0 0 27.84 35.34 -21.63)" id="SvgjsG10244"  >
<path style="stroke: none; stroke-width: 1; stroke-dasharray: none; stroke-linecap: butt; stroke-dashoffset: 0; stroke-linejoin: miter; stroke-miterlimit: 4; fill: rgb(0,0,0); fill-rule: nonzero; opacity: 1;" vector-effect="non-scaling-stroke"  transform=" translate(-3.77, -1.74)" d="M 3.74107 1.864 C 3.7017171074239665 1.866180056091651 3.6653918901111058 1.8429101581458085 3.65092 1.8062500000000001 C 3.6421782208504645 1.7907035058332372 3.627698757353335 1.7791960293900548 3.61058 1.7741900000000002 C 3.5674609827975363 1.7687736604110809 3.535192276061354 1.7319871629527182 3.53544 1.68853 C 3.5355204723823315 1.648345149184167 3.565050706490808 1.614294720693563 3.60482 1.60853 C 3.64882 1.60088 3.67903 1.62209 3.70064 1.6688100000000001 C 3.7089651605966676 1.6824001880516506 3.7231710115680894 1.6913107608933238 3.73903 1.6928900000000002 C 3.79585 1.6923700000000002 3.8526000000000002 1.6866200000000002 3.90944 1.6841100000000002 C 3.9310485134613184 1.6807159324286935 3.9531174645360685 1.6860958162905257 3.9707398267760228 1.6990534355846094 C 3.9883621890159766 1.7120110548786933 4.000077189344897 1.7314723117548543 4.00328 1.7531100000000002 C 4.0073516013003045 1.7755325415202334 4.001674515558752 1.7986276352993447 3.987671531341504 1.8166071997653357 C 3.9736685471242557 1.8345867642313265 3.9526668953000827 1.8457466602809816 3.92993 1.84729 C 3.86624 1.85671 3.80146 1.85893 3.74107 1.864 Z" stroke-linecap="round" />
</g>
		<g transform="matrix(27.84 0 0 27.84 26.71 21.7)" id="SvgjsG10244"  >
<path style="stroke: none; stroke-width: 1; stroke-dasharray: none; stroke-linecap: butt; stroke-dashoffset: 0; stroke-linejoin: miter; stroke-miterlimit: 4; fill: rgb(0,0,0); fill-rule: nonzero; opacity: 1;" vector-effect="non-scaling-stroke"  transform=" translate(-3.46, -3.29)" d="M 3.41469 3.33325 C 3.3835499999999996 3.30042 3.3539999999999996 3.2731500000000002 3.3291399999999998 3.24212 C 3.2958464414977002 3.2064158006694616 3.2975284737674873 3.15055626746592 3.3329099999999996 3.11692 C 3.3677299999999994 3.08624 3.4135199999999997 3.09414 3.4560999999999997 3.13351 C 3.48983968413965 3.1649143176738197 3.52566477165772 3.1940006938681975 3.56333 3.2205700000000004 C 3.592632042911908 3.2331581354654206 3.6125620882326013 3.2609278450137373 3.6151095368411066 3.292717487649258 C 3.617656985449612 3.3245071302847786 3.6024034989670075 3.3550962562122675 3.5754799999999998 3.37219 C 3.5659310654967378 3.3815435246881753 3.559451251302424 3.393578959986656 3.5568999999999997 3.4067 C 3.5547487541740166 3.443488274793417 3.5283599504941194 3.4743413036659474 3.4923499999999996 3.48217 C 3.4599965286540857 3.4913859100618554 3.42536245175784 3.479021476298107 3.4061599999999994 3.4514 C 3.381813548041368 3.4213442216681345 3.382199372654802 3.3782450961000907 3.407079999999999 3.34863 Z" stroke-linecap="round" />
</g>
		<g transform="matrix(27.84 0 0 27.84 -8.54 -40.97)" id="SvgjsG10244"  >
<path style="stroke: none; stroke-width: 1; stroke-dasharray: none; stroke-linecap: butt; stroke-dashoffset: 0; stroke-linejoin: miter; stroke-miterlimit: 4; fill: rgb(0,0,0); fill-rule: nonzero; opacity: 1;" vector-effect="non-scaling-stroke"  transform=" translate(-2.19, -1.04)" d="M 2.14336 0.82741 C 2.184860816215625 0.8302460747152415 2.218677373159969 0.861812369413536 2.22436 0.9030199999999999 C 2.2352 0.95102 2.24113 1.0001799999999998 2.25336 1.0477699999999999 C 2.25881403202607 1.0675171112928867 2.270132861858798 1.0851439396368299 2.2858199999999997 1.09832 C 2.3199303580437896 1.119625091349302 2.3342409297021205 1.1620585740167049 2.32 1.19967 C 2.3088285661083456 1.2351848964660983 2.2740538874193 1.2578005965925405 2.23706 1.2536100000000001 C 2.196604736615921 1.253104320254918 2.1627266708861543 1.2228249452270408 2.1577 1.1826800000000002 C 2.155845570254575 1.1709389349479122 2.150354396892717 1.1600755053543261 2.142 1.15162 C 2.05391 1.0828600000000002 2.06267 0.9833700000000001 2.0625899999999997 0.8896200000000001 C 2.06251 0.84826 2.10115 0.83 2.14336 0.82741 Z" stroke-linecap="round" />
</g>
		<g transform="matrix(27.84 0 0 27.84 16 31.38)" id="SvgjsG10244"  >
<path style="stroke: none; stroke-width: 1; stroke-dasharray: none; stroke-linecap: butt; stroke-dashoffset: 0; stroke-linejoin: miter; stroke-miterlimit: 4; fill: rgb(0,0,0); fill-rule: nonzero; opacity: 1;" vector-effect="non-scaling-stroke"  transform=" translate(-3.08, -3.64)" d="M 3.21989 3.75632 C 3.20089 3.77793 3.18535 3.8106400000000002 3.16182 3.81815 C 3.1317151990743675 3.8246107936683833 3.100287687736225 3.819878891225955 3.07342 3.80484 C 3.050925341395489 3.788705066527081 3.0332161163972704 3.7667836375731887 3.02217 3.7414 C 2.991242250705281 3.6866586224269056 2.9633858216427087 3.6302380026812826 2.93873 3.5724 C 2.929535126283083 3.553350602498967 2.9283360829851195 3.5314161504638593 2.9353997078200798 3.5114779847505013 C 2.9424633326550405 3.491539819037143 2.9572035357071895 3.4752522684265617 2.97634 3.46624 C 2.9958663752292867 3.4564201041356246 3.0185289182309263 3.4548941163919635 3.039195507243638 3.462007609413098 C 3.05986209625635 3.469121102434233 3.076784320051765 3.484272268584495 3.08613 3.50403 C 3.0976399999999997 3.52203 3.1056899999999996 3.5422800000000003 3.1162099999999997 3.56103 C 3.13949 3.60246 3.1638999999999995 3.64326 3.18673 3.68493 C 3.19756 3.7046 3.20584 3.72575 3.21989 3.75632 Z" stroke-linecap="round" />
</g>
		<g transform="matrix(27.84 0 0 27.84 33.54 7.55)" id="SvgjsG10244"  >
<path style="stroke: none; stroke-width: 1; stroke-dasharray: none; stroke-linecap: butt; stroke-dashoffset: 0; stroke-linejoin: miter; stroke-miterlimit: 4; fill: rgb(0,0,0); fill-rule: nonzero; opacity: 1;" vector-effect="non-scaling-stroke"  transform=" translate(-3.71, -2.78)" d="M 3.87673 2.80355 C 3.87539 2.87555 3.82433 2.91728 3.7695 2.89955 C 3.7039499695775113 2.877828298022578 3.6403480431577293 2.850618595740008 3.57937 2.8182100000000005 C 3.560062796209629 2.8092865436079686 3.545224059486896 2.792882696025279 3.5382748419612464 2.772780343725993 C 3.531325624435597 2.752677991426707 3.532865697773634 2.730612124184377 3.54254 2.7116700000000002 C 3.5521330253765786 2.691053455086719 3.5697057730288777 2.6752306999425945 3.591212038024337 2.66784499577968 C 3.612718303019797 2.6604592916167658 3.636304572200949 2.662147173874666 3.6565399999999997 2.6725200000000005 C 3.7142678453868205 2.693680226265829 3.7706233591012652 2.7184113261268847 3.82528 2.7465700000000006 C 3.845913756203616 2.7621008597127257 3.863378933852452 2.78144324693198 3.87673 2.80355 Z" stroke-linecap="round" />
</g>
		<g transform="matrix(27.84 0 0 27.84 -2.45 29.12)" id="SvgjsG10244"  >
<path style="stroke: none; stroke-width: 1; stroke-dasharray: none; stroke-linecap: butt; stroke-dashoffset: 0; stroke-linejoin: miter; stroke-miterlimit: 4; fill: rgb(0,0,0); fill-rule: nonzero; opacity: 1;" vector-effect="non-scaling-stroke"  transform=" translate(-2.41, -3.56)" d="M 2.32244 3.564 C 2.3297299999999996 3.52236 2.33444 3.47942 2.3452699999999997 3.43811 C 2.3541220077174363 3.3998358704907226 2.3915468343400494 3.3753223886475716 2.43017 3.3825 C 2.4696927100438164 3.3826323396562024 2.501641941011437 3.4147471338655317 2.50157 3.4542699999999997 C 2.5038300000000002 3.5246999999999997 2.50328 3.5954599999999997 2.49888 3.6657699999999998 C 2.4940048426655714 3.7020965416906044 2.4650669964957603 3.7304637110070455 2.42865056963844 3.7346144513241595 C 2.3922341427811196 3.7387651916412734 2.357654899831581 3.7176376931378523 2.34473 3.68334 C 2.3343455739353707 3.644168986188668 2.3268949389804714 3.604278507251133 2.32244 3.564 Z" stroke-linecap="round" />
</g>
		<g transform="matrix(27.84 0 0 27.84 -13.04 41.93)" id="SvgjsG10244"  >
<path style="stroke: none; stroke-width: 1; stroke-dasharray: none; stroke-linecap: butt; stroke-dashoffset: 0; stroke-linejoin: miter; stroke-miterlimit: 4; fill: rgb(0,0,0); fill-rule: nonzero; opacity: 1;" vector-effect="non-scaling-stroke"  transform=" translate(-2.03, -4.02)" d="M 1.93229 4.06809 C 1.93877 4.037 1.9493500000000001 3.9826699999999997 1.96184 3.9288 C 1.9660698161198988 3.9139477602786776 1.9725879973983933 3.8998452769742746 1.98116 3.887 C 2.0001265725016273 3.8514866141479063 2.042346253485346 3.8353578430892776 2.0801600000000002 3.84918 C 2.1182473835822737 3.862866913850889 2.140040821274035 3.9029154189009496 2.13085 3.94233 Q 2.1154900000000003 4.03097 2.09674 4.11902 C 2.094017836715506 4.141609478634704 2.0822240410353614 4.162119886749922 2.06407003945421 4.175835824360117 C 2.0459160378730594 4.189551761970312 2.0229637605476087 4.195293140130076 2.00049 4.19174 C 1.95546 4.18467 1.92927 4.14685 1.93229 4.06809 Z" stroke-linecap="round" />
</g>
		<g transform="matrix(27.84 0 0 27.84 -33.14 7.85)" id="SvgjsG10244"  >
<path style="stroke: none; stroke-width: 1; stroke-dasharray: none; stroke-linecap: butt; stroke-dashoffset: 0; stroke-linejoin: miter; stroke-miterlimit: 4; fill: rgb(0,0,0); fill-rule: nonzero; opacity: 1;" vector-effect="non-scaling-stroke"  transform=" translate(-1.31, -2.79)" d="M 1.46327 2.74936 C 1.452183361818314 2.7688259221277076 1.4388852246112065 2.7869460182464008 1.42364 2.8033599999999996 C 1.38218 2.8418699999999997 1.33717 2.8765499999999995 1.29392 2.9131499999999995 C 1.2685568393501607 2.9376938766982303 1.2299130314171238 2.94224695091115 1.19954 2.9242699999999995 C 1.1671680370357334 2.909175848902206 1.150522374751055 2.8728307018119197 1.16024 2.8384599999999995 C 1.1667511838481759 2.8117499349331374 1.1806069698549488 2.787394927079733 1.20024 2.7681499999999994 C 1.2442389390517654 2.729747958355928 1.2915615035220525 2.6953294182543157 1.3416499999999996 2.6652999999999993 C 1.39828 2.6319 1.4647 2.672 1.46327 2.74936 Z" stroke-linecap="round" />
</g>
		<g transform="matrix(27.84 0 0 27.84 -27.2 -38.53)" id="SvgjsG10244"  >
<path style="stroke: none; stroke-width: 1; stroke-dasharray: none; stroke-linecap: butt; stroke-dashoffset: 0; stroke-linejoin: miter; stroke-miterlimit: 4; fill: rgb(0,0,0); fill-rule: nonzero; opacity: 1;" vector-effect="non-scaling-stroke"  transform=" translate(-1.52, -1.13)" d="M 1.65772 1.18092 C 1.65598 1.25545 1.58797 1.29717 1.5375 1.26404 C 1.4741572752984662 1.2246286741112482 1.4249261234478243 1.1661660248965913 1.39687 1.09704 C 1.3792829188520443 1.0569640562360032 1.3952968826095926 1.010095189980867 1.43373 0.98916 C 1.4731477435743359 0.9712564806516566 1.5197323852519653 0.9848328676041355 1.5433599999999998 1.02111 C 1.5706299999999997 1.0563 1.6002399999999999 1.0897299999999999 1.6264899999999998 1.12564 C 1.638243411530638 1.1432747336360216 1.6486816623127036 1.1617514068102959 1.65772 1.1809199999999997 Z" stroke-linecap="round" />
</g>
		<g transform="matrix(27.84 0 0 27.84 22.04 1.68)" id="SvgjsG10244"  >
<path style="stroke: none; stroke-width: 1; stroke-dasharray: none; stroke-linecap: butt; stroke-dashoffset: 0; stroke-linejoin: miter; stroke-miterlimit: 4; fill: rgb(0,0,0); fill-rule: nonzero; opacity: 1;" vector-effect="non-scaling-stroke"  transform=" translate(-3.29, -2.57)" d="M 3.29272 2.60068 C 3.23348 2.6596800000000003 3.18331 2.6676800000000003 3.14537 2.6262600000000003 C 3.1298119308127155 2.6098847391567355 3.1215555354887026 2.587902662650829 3.1224864662273335 2.565334187902163 C 3.123417396965964 2.5427657131534973 3.1334561478171348 2.521538296150809 3.15031 2.5065000000000004 C 3.1930300000000003 2.4688100000000004 3.24247 2.4812700000000003 3.29354 2.5426 C 3.35644 2.4848000000000003 3.4041200000000003 2.4776000000000002 3.4420900000000003 2.5201100000000003 C 3.4724783603375116 2.555751504189692 3.468757358001083 2.6091570012834966 3.43372 2.6402400000000004 C 3.39131 2.67622 3.34194 2.663 3.29272 2.60068 Z" stroke-linecap="round" />
</g>
		<g transform="matrix(27.84 0 0 27.84 -38.05 -27.69)" id="SvgjsG10244"  >
<path style="stroke: none; stroke-width: 1; stroke-dasharray: none; stroke-linecap: butt; stroke-dashoffset: 0; stroke-linejoin: miter; stroke-miterlimit: 4; fill: rgb(0,0,0); fill-rule: nonzero; opacity: 1;" vector-effect="non-scaling-stroke"  transform=" translate(-1.13, -1.52)" d="M 1.09668 1.42182 C 1.1291600000000002 1.42907 1.1765 1.4369500000000002 1.22214 1.4505400000000002 C 1.251076052192542 1.4572018173234285 1.27420689619549 1.4788874131669176 1.2827192027186263 1.5073341276379495 C 1.2912315092417623 1.5357808421089814 1.283814283254584 1.5666075475773087 1.2632936410473845 1.5880686325905216 C 1.2427729988401852 1.6095297176037342 1.2123093599635573 1.6183199233903065 1.18351 1.6110900000000001 C 1.14086 1.60498 1.09832 1.5970900000000001 1.05643 1.5870900000000001 C 1.033859123279056 1.5841836208047642 1.0133778328082996 1.5723999967847884 0.9995207435576181 1.5543480552416413 C 0.9856636543069366 1.5362961136984943 0.9795739830399146 1.5134651487987962 0.9825999999999999 1.4909100000000002 C 0.989 1.44673 1.02886 1.41875 1.09668 1.42182 Z" stroke-linecap="round" />
</g>
		<g transform="matrix(27.84 0 0 27.84 2.68 -26.3)" id="SvgjsG10244"  >
<path style="stroke: none; stroke-width: 1; stroke-dasharray: none; stroke-linecap: butt; stroke-dashoffset: 0; stroke-linejoin: miter; stroke-miterlimit: 4; fill: rgb(0,0,0); fill-rule: nonzero; opacity: 1;" vector-effect="non-scaling-stroke"  transform=" translate(-2.6, -1.57)" d="M 2.61472 1.59283 C 2.60306 1.67174 2.5718400000000003 1.70667 2.5184100000000003 1.70059 C 2.4719228215388718 1.6946883825126207 2.4386166210958664 1.6528016316957286 2.44334 1.6061800000000002 C 2.45173 1.5488300000000002 2.49202 1.5283400000000003 2.56542 1.5377300000000003 C 2.58510136335798 1.5042926687754548 2.607510876337139 1.4725380544136442 2.6324199999999998 1.4427900000000005 C 2.6426800000000004 1.4321900000000003 2.67077 1.4331200000000002 2.68895 1.4370700000000003 C 2.710171287915767 1.44218247668107 2.728455742937725 1.455592144992818 2.7397090367519086 1.4742962583626094 C 2.750962330566092 1.4930003717324007 2.754244287994297 1.5154362638501786 2.7488200000000003 1.5365800000000003 C 2.7366 1.58883 2.69863 1.60476 2.61472 1.59283 Z" stroke-linecap="round" />
</g>
		<g transform="matrix(27.84 0 0 27.84 13.76 -25.11)" id="SvgjsG10244"  >
<path style="stroke: none; stroke-width: 1; stroke-dasharray: none; stroke-linecap: butt; stroke-dashoffset: 0; stroke-linejoin: miter; stroke-miterlimit: 4; fill: rgb(0,0,0); fill-rule: nonzero; opacity: 1;" vector-effect="non-scaling-stroke"  transform=" translate(-2.99, -1.61)" d="M 2.97015 1.61331 C 2.90215 1.56778 2.8849299999999998 1.51792 2.9195699999999998 1.4724 C 2.9340623511715855 1.4540244444653132 2.9554462354721402 1.4423837044138998 2.9787456325758606 1.4401865748564826 C 3.0020450296795804 1.4379894452990654 3.0252280445567665 1.4454275336239149 3.0429 1.46077 C 3.0620507628547777 1.4792856814739443 3.071783853707624 1.505479477256659 3.0693705872436143 1.5320079209226227 C 3.066957320779604 1.5585363645885861 3.052657463527516 1.5825439066873979 3.03048 1.5973 C 3.0527316750781246 1.626157766721897 3.0717300454819374 1.6573835084394435 3.0871299999999997 1.6904099999999997 C 3.0895020283061037 1.7130680448570943 3.0824381274995614 1.73570290980709 3.0675999999999997 1.75299 C 3.0535400402651236 1.7697445758784054 3.033178629213242 1.7799406242431923 3.01134044910639 1.7811621684430814 C 2.9895022689995385 1.7823837126429702 2.9681307783289643 1.7745220430494073 2.9522899999999996 1.7594400000000001 C 2.90884 1.71961 2.91387 1.67175 2.97015 1.61331 Z" stroke-linecap="round" />
</g>
		<g transform="matrix(27.84 0 0 27.84 10.75 -34.3)" id="SvgjsG10244"  >
<path style="stroke: none; stroke-width: 1; stroke-dasharray: none; stroke-linecap: butt; stroke-dashoffset: 0; stroke-linejoin: miter; stroke-miterlimit: 4; fill: rgb(0,0,0); fill-rule: nonzero; opacity: 1;" vector-effect="non-scaling-stroke"  transform=" translate(-2.89, -1.28)" d="M 2.91718 1.24228 C 3.0003100000000003 1.25342 3.03192 1.27887 3.03012 1.33322 C 3.029988700939729 1.3750623949739462 2.9975982408337027 1.4097166106408436 2.95586 1.41267 C 2.9026899999999998 1.4177700000000002 2.87386 1.39002 2.8594399999999998 1.3200200000000002 C 2.76815 1.3013400000000002 2.7411399999999997 1.2793300000000003 2.74376 1.2257700000000002 C 2.745511421937386 1.1859224120329757 2.7758650227849637 1.1532068938415199 2.81547 1.1484800000000002 C 2.86755 1.14227 2.89454 1.16716 2.91718 1.24228 Z" stroke-linecap="round" />
</g>
		<g transform="matrix(27.84 0 0 27.84 -19.69 24.05)" id="SvgjsG10244"  >
<path style="stroke: none; stroke-width: 1; stroke-dasharray: none; stroke-linecap: butt; stroke-dashoffset: 0; stroke-linejoin: miter; stroke-miterlimit: 4; fill: rgb(0,0,0); fill-rule: nonzero; opacity: 1;" vector-effect="non-scaling-stroke"  transform=" translate(-1.79, -3.38)" d="M 1.6833 3.42259 C 1.7054314017658423 3.3678312847405625 1.730590228193137 3.3143454091843405 1.75866 3.2623800000000003 C 1.7792109432865317 3.228656012779983 1.8229400550690347 3.2175294079028705 1.85711 3.23733 C 1.8953223883051598 3.255284568727711 1.9132432588980575 3.2996529999839783 1.89822 3.3391100000000002 C 1.88547 3.3814800000000003 1.87183 3.4235800000000003 1.858 3.4656100000000003 C 1.8459787871267472 3.505832893554605 1.805683888366873 3.530627768250717 1.7643600000000002 3.5232300000000003 C 1.7198143469275626 3.5146703984774224 1.6895575760443737 3.47300827743627 1.6952 3.428 Z" stroke-linecap="round" />
</g>
		<g transform="matrix(27.84 0 0 27.84 6.35 -1.48)" id="SvgjsG10244"  >
<path style="stroke: none; stroke-width: 1; stroke-dasharray: none; stroke-linecap: butt; stroke-dashoffset: 0; stroke-linejoin: miter; stroke-miterlimit: 4; fill: rgb(0,0,0); fill-rule: nonzero; opacity: 1;" vector-effect="non-scaling-stroke"  transform=" translate(-2.73, -2.46)" d="M 2.87425 2.43477 C 2.8640927271174883 2.4547203638800923 2.850334896395521 2.47262113919108 2.83367 2.48757 C 2.789989006435239 2.516411281453496 2.7441114262865214 2.5417791992866214 2.69646 2.56344 C 2.658849314677835 2.5831091645832998 2.612414304688032 2.568732339856418 2.592497756483275 2.5312520678001023 C 2.572581208278518 2.493771795743786 2.586651768348386 2.447243067184961 2.624 2.42708 C 2.671505129764683 2.3984559167149673 2.721063858220203 2.3733874292652875 2.77227 2.35208 C 2.82263 2.33172 2.87293 2.368 2.87425 2.43477 Z" stroke-linecap="round" />
</g>
		<g transform="matrix(27.84 0 0 27.84 25.1 -6.12)" id="SvgjsG10244"  >
<path style="stroke: none; stroke-width: 1; stroke-dasharray: none; stroke-linecap: butt; stroke-dashoffset: 0; stroke-linejoin: miter; stroke-miterlimit: 4; fill: rgb(0,0,0); fill-rule: nonzero; opacity: 1;" vector-effect="non-scaling-stroke"  transform=" translate(-3.4, -2.29)" d="M 3.37115 2.234 C 3.382200547834083 2.228020556854565 3.3926779734870327 2.221037838032823 3.40245 2.21314 C 3.4311761044175286 2.1829159780545777 3.4772879164084878 2.177277761042956 3.51245 2.19969 C 3.5453613295915685 2.220369112265168 3.558628651431744 2.261723995863679 3.5438899999999998 2.29769 C 3.530722450430643 2.335800834012461 3.4920538254501796 2.358920148314945 3.45225 2.35248 C 3.4354458669830006 2.352455911469572 3.41916634354402 2.358330696014943 3.40625 2.36908 C 3.378660287686362 2.400163622505619 3.333230428866641 2.4080133906916656 3.29681 2.38799 C 3.262790454405404 2.369446623564576 3.246789803892231 2.3293126737082215 3.25872 2.2924499999999997 C 3.26937 2.2517 3.30622 2.23017 3.37115 2.234 Z" stroke-linecap="round" />
</g>
		<g transform="matrix(27.84 0 0 27.84 30.99 -36.22)" id="SvgjsG10244"  >
<path style="stroke: none; stroke-width: 1; stroke-dasharray: none; stroke-linecap: butt; stroke-dashoffset: 0; stroke-linejoin: miter; stroke-miterlimit: 4; fill: rgb(0,0,0); fill-rule: nonzero; opacity: 1;" vector-effect="non-scaling-stroke"  transform=" translate(-3.61, -1.21)" d="M 3.5805 1.33689 C 3.51768 1.33615 3.4711499999999997 1.27369 3.50173 1.22721 C 3.537581410748583 1.176662949553081 3.581500654283843 1.132355189632702 3.6317299999999997 1.09606 C 3.6462423461963662 1.0863294033194697 3.6642051343557207 1.0832218762957617 3.6811429774157998 1.0875116520887929 C 3.698080820475879 1.0918014278818242 3.712398936483223 1.1030846028189223 3.7205299999999997 1.11855 C 3.7365677850224777 1.1448472848553246 3.740277297393108 1.176851422618488 3.7306799999999996 1.2061199999999999 C 3.695783722717877 1.250379729316667 3.6562222781979243 1.2907525187157578 3.6126799999999997 1.32654 C 3.60371 1.33484 3.58713 1.33493 3.5805 1.33689 Z" stroke-linecap="round" />
</g>
		<g transform="matrix(27.84 0 0 27.84 -41.2 -7.36)" id="SvgjsG10244"  >
<path style="stroke: none; stroke-width: 1; stroke-dasharray: none; stroke-linecap: butt; stroke-dashoffset: 0; stroke-linejoin: miter; stroke-miterlimit: 4; fill: rgb(0,0,0); fill-rule: nonzero; opacity: 1;" vector-effect="non-scaling-stroke"  transform=" translate(-1.02, -2.25)" d="M 1.06915 2.14389 C 1.1078519228902206 2.1491532020164725 1.1402587175506556 2.1758304475074604 1.15286 2.2127999999999997 C 1.1658941382638797 2.2480788354572203 1.1490402213543065 2.287388531648553 1.1145 2.3022699999999996 C 1.0698784699987247 2.3226569843808815 1.0234980866600747 2.3389505332076514 0.9759300000000001 2.3509499999999997 C 0.9409499903862384 2.356103823524565 0.9067429101279952 2.337651225312796 0.8918390966915222 2.305588173141301 C 0.8769352832550492 2.2735251209698055 0.8848801994196224 2.2354790827043467 0.91137 2.2120599999999997 C 0.9623691556003571 2.1858115572222263 1.0150823677067113 2.1630364293904973 1.0691499999999992 2.14389 Z" stroke-linecap="round" />
</g>
		<g transform="matrix(27.84 0 0 27.84 -46.63 3.54)" id="SvgjsG10244"  >
<path style="stroke: none; stroke-width: 1; stroke-dasharray: none; stroke-linecap: butt; stroke-dashoffset: 0; stroke-linejoin: miter; stroke-miterlimit: 4; fill: rgb(0,0,0); fill-rule: nonzero; opacity: 1;" vector-effect="non-scaling-stroke"  transform=" translate(-0.83, -2.64)" d="M 0.7049 2.684 C 0.71803 2.62447 0.8089 2.5212000000000003 0.8610099999999999 2.51981 C 0.8890015968647679 2.5190030577593583 0.9159676836332644 2.530373903600457 0.9349299999999999 2.55098 C 0.9490826433887506 2.576743808679055 0.9506127420572791 2.6075817490732045 0.9390799999999999 2.63462 C 0.9145979545849604 2.6770585563029123 0.8823743598836287 2.7145295090045556 0.8440799999999999 2.74509 C 0.818864538497845 2.7604629425959217 0.7879707746724298 2.763355313128418 0.7603399999999999 2.7529299999999997 C 0.73637 2.74178 0.72294 2.70789 0.7049 2.684 Z" stroke-linecap="round" />
</g>
		<g transform="matrix(27.84 0 0 27.84 7.61 11.94)" id="SvgjsG10244"  >
<path style="stroke: none; stroke-width: 1; stroke-dasharray: none; stroke-linecap: butt; stroke-dashoffset: 0; stroke-linejoin: miter; stroke-miterlimit: 4; fill: rgb(0,0,0); fill-rule: nonzero; opacity: 1;" vector-effect="non-scaling-stroke"  transform=" translate(-2.77, -2.94)" d="M 2.75019 3.06664 C 2.714548068023766 3.0636846254105303 2.683607140206717 3.040912102537183 2.67019 3.00776 C 2.6565388791254403 2.9756130904532005 2.6642034574215674 2.9383731939318087 2.68944 2.9142300000000003 C 2.7028619683461157 2.8945710949424117 2.7175005536815324 2.875771050029553 2.7332699999999996 2.85794 C 2.7552699999999994 2.83944 2.7831699999999997 2.81447 2.8073799999999998 2.8156600000000003 C 2.8378733270167533 2.8195181061208583 2.8650010315187298 2.8369211310701896 2.88122 2.86303 C 2.888552455634086 2.891484547328328 2.884900072115024 2.921656876868494 2.87099 2.94754 C 2.8571442233939663 2.975877625004544 2.8381555245970778 3.0013970798519334 2.81499 3.0228 C 2.794876306806039 3.0394981627853985 2.7731722675124777 3.054181883196351 2.75019 3.06664 Z" stroke-linecap="round" />
</g>
		<g transform="matrix(27.84 0 0 27.84 33.51 31.8)" id="SvgjsG10244"  >
<path style="stroke: none; stroke-width: 1; stroke-dasharray: none; stroke-linecap: butt; stroke-dashoffset: 0; stroke-linejoin: miter; stroke-miterlimit: 4; fill: rgb(0,0,0); fill-rule: nonzero; opacity: 1;" vector-effect="non-scaling-stroke"  transform=" translate(-3.7, -3.65)" d="M 3.82264 3.67594 C 3.82325 3.7425400000000004 3.7626399999999998 3.7890300000000003 3.7137 3.7617000000000003 C 3.669497622440403 3.735070329183476 3.6307078114195965 3.700351514596548 3.59936 3.6593600000000004 C 3.5881732642242667 3.643979931992715 3.583793590380803 3.624680643393061 3.587245891492148 3.605978473298086 C 3.590698192603493 3.5872763032031103 3.601679494980317 3.570812552672426 3.61762 3.5604400000000003 C 3.645630952467239 3.5331541730784313 3.689999842049466 3.532257787706956 3.71909 3.55839 C 3.7472840560767446 3.579733893709575 3.773633539366187 3.603410628852735 3.79786 3.6291700000000002 C 3.808435083749876 3.643418778121201 3.8167899263182767 3.6591877848574432 3.82264 3.67594 Z" stroke-linecap="round" />
</g>
		<g transform="matrix(27.84 0 0 27.84 -39.2 19.85)" id="SvgjsG10244"  >
<path style="stroke: none; stroke-width: 1; stroke-dasharray: none; stroke-linecap: butt; stroke-dashoffset: 0; stroke-linejoin: miter; stroke-miterlimit: 4; fill: rgb(0,0,0); fill-rule: nonzero; opacity: 1;" vector-effect="non-scaling-stroke"  transform=" translate(-1.09, -3.23)" d="M 1.1285 3.1105 C 1.1584831093803356 3.110399897405553 1.185972187807161 3.127177327054885 1.19959116931373 3.15388912615877 C 1.2132101508202988 3.1806009252626546 1.2106421859679373 3.2127029054961462 1.19295 3.23691 C 1.1668415509902266 3.2728450514740195 1.1346459465313634 3.303933963758169 1.09782 3.32877 C 1.0728278501590898 3.3435478457055985 1.041782335499057 3.343589390390737 1.0167507242138913 3.3288784858013734 C 0.9917191129287257 3.31416758121201 0.9766497358605443 3.287024634038865 0.9774 3.258 C 0.9962203284503103 3.184445514802537 1.0545131548039453 3.12754153143284 1.1284999999999998 3.1105 Z" stroke-linecap="round" />
</g>
		<g transform="matrix(27.84 0 0 27.84 11.28 -43.14)" id="SvgjsG10244"  >
<path style="stroke: none; stroke-width: 1; stroke-dasharray: none; stroke-linecap: butt; stroke-dashoffset: 0; stroke-linejoin: miter; stroke-miterlimit: 4; fill: rgb(0,0,0); fill-rule: nonzero; opacity: 1;" vector-effect="non-scaling-stroke"  transform=" translate(-2.91, -0.96)" d="M 2.80718 0.99639 C 2.8189667563752345 0.9555832963393891 2.8338224441260533 0.9157263285056773 2.85162 0.8771600000000002 C 2.871519776630331 0.8399565583723326 2.917003395177083 0.824760246647547 2.95527 0.84253 C 2.9952528506004583 0.8600706134175443 3.0146428041827713 0.9057288468699038 2.9995000000000003 0.94668 C 2.9919200000000004 0.97481 2.9845 1.00305 2.97493 1.0305499999999999 C 2.9630794993561733 1.0724210233702367 2.9206242458915916 1.0977783764313742 2.87814 1.0883599999999998 C 2.8372329361234967 1.0760613404223056 2.808698875918848 1.0390788500471433 2.80718 0.99639 Z" stroke-linecap="round" />
</g>
		<g transform="matrix(27.84 0 0 27.84 -44.02 -18.76)" id="SvgjsG10244"  >
<path style="stroke: none; stroke-width: 1; stroke-dasharray: none; stroke-linecap: butt; stroke-dashoffset: 0; stroke-linejoin: miter; stroke-miterlimit: 4; fill: rgb(0,0,0); fill-rule: nonzero; opacity: 1;" vector-effect="non-scaling-stroke"  transform=" translate(-0.92, -1.84)" d="M 0.92686 1.75567 C 0.94143793727973 1.7562569463940805 0.9559482536449792 1.7579754493000108 0.97026 1.76081 C 1.008662280081415 1.7664985794360593 1.0368562450531096 1.7998362405844217 1.03609 1.83865 C 1.0410422439120586 1.8777041452146412 1.013710096919653 1.9134951818971673 0.97473 1.919 C 0.9370054013662298 1.9245620679674642 0.8985560868348501 1.922669669964992 0.86156 1.91343 C 0.8409091594439146 1.908454176324722 0.823226596128885 1.8951777844174242 0.8126868736284236 1.8767351629515485 C 0.8021471511279621 1.8582925414856728 0.7996843871746824 1.8363182287278954 0.80588 1.816 C 0.81711 1.77088 0.8534 1.7506 0.92686 1.75567 Z" stroke-linecap="round" />
</g>
		<g transform="matrix(27.84 0 0 27.84 12.26 45)" id="SvgjsG10244"  >
<path style="stroke: none; stroke-width: 1; stroke-dasharray: none; stroke-linecap: butt; stroke-dashoffset: 0; stroke-linejoin: miter; stroke-miterlimit: 4; fill: rgb(0,0,0); fill-rule: nonzero; opacity: 1;" vector-effect="non-scaling-stroke"  transform=" translate(-2.94, -4.13)" d="M 3.035 4.17278 C 3.0188132833753247 4.19758737500791 2.9986027222391476 4.219521579317907 2.9752 4.23768 C 2.9434958960921103 4.254089125470031 2.9045312111754704 4.244241710333007 2.88443 4.21474 C 2.849951401340418 4.1759526740224056 2.838436245475302 4.121879690377337 2.85412 4.07241 C 2.8679509270300048 4.0448754012539325 2.8921686037484844 4.023975017349959 2.92143 4.01432 C 2.9560009118589603 4.00427674474858 2.992242862238756 4.023790272168883 3.00289 4.058179999999999 C 3.0158070101315553 4.0957248736213145 3.0265284626326348 4.133989540598073 3.035 4.17278 Z" stroke-linecap="round" />
</g>
		<g transform="matrix(27.84 0 0 27.84 -10.53 -4.63)" id="SvgjsG10244"  >
<path style="stroke: none; stroke-width: 1; stroke-dasharray: none; stroke-linecap: butt; stroke-dashoffset: 0; stroke-linejoin: miter; stroke-miterlimit: 4; fill: rgb(0,0,0); fill-rule: nonzero; opacity: 1;" vector-effect="non-scaling-stroke"  transform=" translate(-2.12, -2.35)" d="M 2.22989 2.38324 C 2.20615 2.4100699999999997 2.1907200000000002 2.4419299999999997 2.1670100000000003 2.4503 C 2.1386184087063356 2.458478070741053 2.108073404542901 2.453897050159658 2.08333 2.43775 C 2.056043324068132 2.413114731267085 2.034794557947148 2.382528141837861 2.02123 2.34836 C 2.005312777885571 2.3109153338669866 2.021274906571851 2.267549506755523 2.05767 2.24936 C 2.0908012759081713 2.2286179992018242 2.134284014780006 2.236577183823252 2.15792 2.2677099999999997 C 2.184073072697895 2.3048295867190007 2.208101593497514 2.343401422316889 2.22989 2.38324 Z" stroke-linecap="round" />
</g>
		<g transform="matrix(27.84 0 0 27.84 -27.27 -22.04)" id="SvgjsG10244"  >
<path style="stroke: none; stroke-width: 1; stroke-dasharray: none; stroke-linecap: butt; stroke-dashoffset: 0; stroke-linejoin: miter; stroke-miterlimit: 4; fill: rgb(0,0,0); fill-rule: nonzero; opacity: 1;" vector-effect="non-scaling-stroke"  transform=" translate(-1.52, -1.72)" d="M 1.50688 1.63349 C 1.57582 1.63416 1.62734 1.67584 1.62552 1.7294900000000002 C 1.6246595608596885 1.7512303080803528 1.615152552964374 1.7717267332150999 1.5991111644633778 1.7864255496947672 C 1.5830697759623817 1.8011243661744343 1.5618225431653934 1.80880822854283 1.5400900000000002 1.80777 C 1.4664300000000001 1.8073100000000002 1.4178300000000001 1.7715 1.41738 1.71734 C 1.416931555153546 1.6939632564295717 1.4264160983804584 1.6714925795191988 1.4434787900048904 1.6555070298799963 C 1.4605414816293223 1.6395214802407938 1.4835820715081824 1.6315202866381049 1.50688 1.63349 Z" stroke-linecap="round" />
</g>
		<g transform="matrix(27.84 0 0 27.84 42.56 16.52)" id="SvgjsG10244"  >
<path style="stroke: none; stroke-width: 1; stroke-dasharray: none; stroke-linecap: butt; stroke-dashoffset: 0; stroke-linejoin: miter; stroke-miterlimit: 4; fill: rgb(0,0,0); fill-rule: nonzero; opacity: 1;" vector-effect="non-scaling-stroke"  transform=" translate(-4.03, -3.11)" d="M 4.01443 3.01581 C 4.08308 3.01968 4.13714 3.06732 4.13289 3.12019 C 4.130777022433476 3.1426506219360486 4.11966029350708 3.1632988292062967 4.102073502192702 3.177428549062518 C 4.084486710878326 3.1915582689187394 4.061928404706045 3.197965526376941 4.03954 3.19519 C 3.981807062071923 3.195211769408444 3.933098598197683 3.152227407582805 3.9259399999999998 3.0949400000000002 C 3.9261080168417894 3.0723345338128065 3.9358132119600002 3.050850886622705 3.952664487157318 3.035782049394049 C 3.969515762354636 3.020713212165393 3.991946365051924 3.013460214749998 4.01443 3.01581 Z" stroke-linecap="round" />
</g>
		<g transform="matrix(27.84 0 0 27.84 1.44 -6.07)" id="SvgjsG10244"  >
<path style="stroke: none; stroke-width: 1; stroke-dasharray: none; stroke-linecap: butt; stroke-dashoffset: 0; stroke-linejoin: miter; stroke-miterlimit: 4; fill: rgb(0,0,0); fill-rule: nonzero; opacity: 1;" vector-effect="non-scaling-stroke"  transform=" translate(-2.55, -2.29)" d="M 2.454 2.29981 C 2.463098395493004 2.241651983756682 2.5137766808757145 2.199167321518542 2.57263 2.20036 C 2.5943497081490525 2.2011119590048764 2.6148742431888876 2.210488694712397 2.62966143326544 2.226415093365732 C 2.6444486233419924 2.242341492019066 2.652279120311647 2.2635042666088583 2.6514200000000003 2.28522 C 2.641015170727365 2.3427136538829405 2.5922829598951385 2.385403070571971 2.53392 2.38815 C 2.51144241747856 2.3874981574389675 2.490204374995395 2.3777014700704475 2.475118217509266 2.36102590510142 C 2.4600320600231367 2.3443503401323933 2.4524045769497933 2.3222403642418796 2.454 2.29981 Z" stroke-linecap="round" />
</g>
		<g transform="matrix(1 -27.82 27.82 1 -1.85 7.7)" id="SvgjsG10244"  >
<circle style="stroke: none; stroke-width: 1; stroke-dasharray: none; stroke-linecap: butt; stroke-dashoffset: 0; stroke-linejoin: miter; stroke-miterlimit: 4; fill: rgb(0,0,0); fill-rule: nonzero; opacity: 1;" vector-effect="non-scaling-stroke"  cx="0" cy="0" r="0.0831" />
</g>
		<g transform="matrix(27.84 -0.11 0.11 27.84 -7.99 1.03)" id="SvgjsG10244"  >
<circle style="stroke: none; stroke-width: 1; stroke-dasharray: none; stroke-linecap: butt; stroke-dashoffset: 0; stroke-linejoin: miter; stroke-miterlimit: 4; fill: rgb(0,0,0); fill-rule: nonzero; opacity: 1;" vector-effect="non-scaling-stroke"  cx="0" cy="0" r="0.08353" />
</g>
		<g transform="matrix(0.43 -27.84 27.84 0.43 -9.48 -17.89)" id="SvgjsG10244"  >
<circle style="stroke: none; stroke-width: 1; stroke-dasharray: none; stroke-linecap: butt; stroke-dashoffset: 0; stroke-linejoin: miter; stroke-miterlimit: 4; fill: rgb(0,0,0); fill-rule: nonzero; opacity: 1;" vector-effect="non-scaling-stroke"  cx="0" cy="0" r="0.08378" />
</g>
		<g transform="matrix(27.84 -0.05 0.05 27.84 -6.09 -29.79)" id="SvgjsG10244"  >
<circle style="stroke: none; stroke-width: 1; stroke-dasharray: none; stroke-linecap: butt; stroke-dashoffset: 0; stroke-linejoin: miter; stroke-miterlimit: 4; fill: rgb(0,0,0); fill-rule: nonzero; opacity: 1;" vector-effect="non-scaling-stroke"  cx="0" cy="0" r="0.08379" />
</g>
		<g transform="matrix(0.44 -27.84 27.84 0.44 -29.61 18.66)" id="SvgjsG10244"  >
<circle style="stroke: none; stroke-width: 1; stroke-dasharray: none; stroke-linecap: butt; stroke-dashoffset: 0; stroke-linejoin: miter; stroke-miterlimit: 4; fill: rgb(0,0,0); fill-rule: nonzero; opacity: 1;" vector-effect="non-scaling-stroke"  cx="0" cy="0" r="0.08377" />
</g>
		<g transform="matrix(0.77 -27.83 27.83 0.77 -3.55 -19)" id="SvgjsG10244"  >
<circle style="stroke: none; stroke-width: 1; stroke-dasharray: none; stroke-linecap: butt; stroke-dashoffset: 0; stroke-linejoin: miter; stroke-miterlimit: 4; fill: rgb(0,0,0); fill-rule: nonzero; opacity: 1;" vector-effect="non-scaling-stroke"  cx="0" cy="0" r="0.08326" />
</g>
		<g transform="matrix(27.82 -1.05 1.05 27.82 25 -32.73)" id="SvgjsG10244"  >
<circle style="stroke: none; stroke-width: 1; stroke-dasharray: none; stroke-linecap: butt; stroke-dashoffset: 0; stroke-linejoin: miter; stroke-miterlimit: 4; fill: rgb(0,0,0); fill-rule: nonzero; opacity: 1;" vector-effect="non-scaling-stroke"  cx="0" cy="0" r="0.08394" />
</g>
		<g transform="matrix(2.05 -27.77 27.77 2.05 24.64 -25.33)" id="SvgjsG10244"  >
<circle style="stroke: none; stroke-width: 1; stroke-dasharray: none; stroke-linecap: butt; stroke-dashoffset: 0; stroke-linejoin: miter; stroke-miterlimit: 4; fill: rgb(0,0,0); fill-rule: nonzero; opacity: 1;" vector-effect="non-scaling-stroke"  cx="0" cy="0" r="0.08348" />
</g>
		<g transform="matrix(1.27 -27.81 27.81 1.27 -14.94 -28.37)" id="SvgjsG10244"  >
<circle style="stroke: none; stroke-width: 1; stroke-dasharray: none; stroke-linecap: butt; stroke-dashoffset: 0; stroke-linejoin: miter; stroke-miterlimit: 4; fill: rgb(0,0,0); fill-rule: nonzero; opacity: 1;" vector-effect="non-scaling-stroke"  cx="0" cy="0" r="0.08323" />
</g>
		<g transform="matrix(0.86 -27.83 27.83 0.86 5.36 23.65)" id="SvgjsG10244"  >
<circle style="stroke: none; stroke-width: 1; stroke-dasharray: none; stroke-linecap: butt; stroke-dashoffset: 0; stroke-linejoin: miter; stroke-miterlimit: 4; fill: rgb(0,0,0); fill-rule: nonzero; opacity: 1;" vector-effect="non-scaling-stroke"  cx="0" cy="0" r="0.08336" />
</g>
		<g transform="matrix(1.11 -27.82 27.82 1.11 47.44 -15.3)" id="SvgjsG10244"  >
<circle style="stroke: none; stroke-width: 1; stroke-dasharray: none; stroke-linecap: butt; stroke-dashoffset: 0; stroke-linejoin: miter; stroke-miterlimit: 4; fill: rgb(0,0,0); fill-rule: nonzero; opacity: 1;" vector-effect="non-scaling-stroke"  cx="0" cy="0" r="0.08358" />
</g>
		<g transform="matrix(27.84 -0.42 0.42 27.84 16.68 18.64)" id="SvgjsG10244"  >
<circle style="stroke: none; stroke-width: 1; stroke-dasharray: none; stroke-linecap: butt; stroke-dashoffset: 0; stroke-linejoin: miter; stroke-miterlimit: 4; fill: rgb(0,0,0); fill-rule: nonzero; opacity: 1;" vector-effect="non-scaling-stroke"  cx="0" cy="0" r="0.08358" />
</g>
		<g transform="matrix(27.84 0 0 27.84 -8.91 26.07)" id="SvgjsG10244"  >
<circle style="stroke: none; stroke-width: 1; stroke-dasharray: none; stroke-linecap: butt; stroke-dashoffset: 0; stroke-linejoin: miter; stroke-miterlimit: 4; fill: rgb(0,0,0); fill-rule: nonzero; opacity: 1;" vector-effect="non-scaling-stroke"  cx="0" cy="0" r="0.0837" />
</g>
		<g transform="matrix(27.83 -0.95 0.95 27.83 -17.45 -14.52)" id="SvgjsG10244"  >
<circle style="stroke: none; stroke-width: 1; stroke-dasharray: none; stroke-linecap: butt; stroke-dashoffset: 0; stroke-linejoin: miter; stroke-miterlimit: 4; fill: rgb(0,0,0); fill-rule: nonzero; opacity: 1;" vector-effect="non-scaling-stroke"  cx="0" cy="0" r="0.08345" />
</g>
		<g transform="matrix(27.84 -0.37 0.37 27.84 -29.87 -7.86)" id="SvgjsG10244"  >
<circle style="stroke: none; stroke-width: 1; stroke-dasharray: none; stroke-linecap: butt; stroke-dashoffset: 0; stroke-linejoin: miter; stroke-miterlimit: 4; fill: rgb(0,0,0); fill-rule: nonzero; opacity: 1;" vector-effect="non-scaling-stroke"  cx="0" cy="0" r="0.08366" />
</g>
		<g transform="matrix(27.84 -0.14 0.14 27.84 24.27 -11.95)" id="SvgjsG10244"  >
<circle style="stroke: none; stroke-width: 1; stroke-dasharray: none; stroke-linecap: butt; stroke-dashoffset: 0; stroke-linejoin: miter; stroke-miterlimit: 4; fill: rgb(0,0,0); fill-rule: nonzero; opacity: 1;" vector-effect="non-scaling-stroke"  cx="0" cy="0" r="0.08337" />
</g>
		<g transform="matrix(27.84 -0.32 0.32 27.84 11.13 5.48)" id="SvgjsG10244"  >
<circle style="stroke: none; stroke-width: 1; stroke-dasharray: none; stroke-linecap: butt; stroke-dashoffset: 0; stroke-linejoin: miter; stroke-miterlimit: 4; fill: rgb(0,0,0); fill-rule: nonzero; opacity: 1;" vector-effect="non-scaling-stroke"  cx="0" cy="0" r="0.08356" />
</g>
		<g transform="matrix(0.13 -27.84 27.84 0.13 18.54 -35.31)" id="SvgjsG10244"  >
<circle style="stroke: none; stroke-width: 1; stroke-dasharray: none; stroke-linecap: butt; stroke-dashoffset: 0; stroke-linejoin: miter; stroke-miterlimit: 4; fill: rgb(0,0,0); fill-rule: nonzero; opacity: 1;" vector-effect="non-scaling-stroke"  cx="0" cy="0" r="0.08337" />
</g>
		<g transform="matrix(0.3 -27.84 27.84 0.3 -17.24 9.74)" id="SvgjsG10244"  >
<circle style="stroke: none; stroke-width: 1; stroke-dasharray: none; stroke-linecap: butt; stroke-dashoffset: 0; stroke-linejoin: miter; stroke-miterlimit: 4; fill: rgb(0,0,0); fill-rule: nonzero; opacity: 1;" vector-effect="non-scaling-stroke"  cx="0" cy="0" r="0.08311" />
</g>
		<g transform="matrix(0.57 -27.84 27.84 0.57 32.62 -13.6)" id="SvgjsG10244"  >
<circle style="stroke: none; stroke-width: 1; stroke-dasharray: none; stroke-linecap: butt; stroke-dashoffset: 0; stroke-linejoin: miter; stroke-miterlimit: 4; fill: rgb(0,0,0); fill-rule: nonzero; opacity: 1;" vector-effect="non-scaling-stroke"  cx="0" cy="0" r="0.08335" />
</g>
		<g transform="matrix(0.18 -27.84 27.84 0.18 2.21 16.04)" id="SvgjsG10244"  >
<circle style="stroke: none; stroke-width: 1; stroke-dasharray: none; stroke-linecap: butt; stroke-dashoffset: 0; stroke-linejoin: miter; stroke-miterlimit: 4; fill: rgb(0,0,0); fill-rule: nonzero; opacity: 1;" vector-effect="non-scaling-stroke"  cx="0" cy="0" r="0.08351" />
</g>
		<g transform="matrix(1.22 -27.81 27.81 1.22 3.17 -34.6)" id="SvgjsG10244"  >
<circle style="stroke: none; stroke-width: 1; stroke-dasharray: none; stroke-linecap: butt; stroke-dashoffset: 0; stroke-linejoin: miter; stroke-miterlimit: 4; fill: rgb(0,0,0); fill-rule: nonzero; opacity: 1;" vector-effect="non-scaling-stroke"  cx="0" cy="0" r="0.0833" />
</g>
		<g transform="matrix(0.27 -27.84 27.84 0.27 -30.6 31.97)" id="SvgjsG10244"  >
<circle style="stroke: none; stroke-width: 1; stroke-dasharray: none; stroke-linecap: butt; stroke-dashoffset: 0; stroke-linejoin: miter; stroke-miterlimit: 4; fill: rgb(0,0,0); fill-rule: nonzero; opacity: 1;" vector-effect="non-scaling-stroke"  cx="0" cy="0" r="0.08311" />
</g>
		<g transform="matrix(0.4 -27.84 27.84 0.4 3.88 41.07)" id="SvgjsG10244"  >
<circle style="stroke: none; stroke-width: 1; stroke-dasharray: none; stroke-linecap: butt; stroke-dashoffset: 0; stroke-linejoin: miter; stroke-miterlimit: 4; fill: rgb(0,0,0); fill-rule: nonzero; opacity: 1;" vector-effect="non-scaling-stroke"  cx="0" cy="0" r="0.08373" />
</g>
		<g transform="matrix(27.84 -0.58 0.58 27.84 0.36 -46.63)" id="SvgjsG10244"  >
<circle style="stroke: none; stroke-width: 1; stroke-dasharray: none; stroke-linecap: butt; stroke-dashoffset: 0; stroke-linejoin: miter; stroke-miterlimit: 4; fill: rgb(0,0,0); fill-rule: nonzero; opacity: 1;" vector-effect="non-scaling-stroke"  cx="0" cy="0" r="0.08328" />
</g>
		<g transform="matrix(27.83 -0.62 0.62 27.83 8.58 -11.78)" id="SvgjsG10244"  >
<circle style="stroke: none; stroke-width: 1; stroke-dasharray: none; stroke-linecap: butt; stroke-dashoffset: 0; stroke-linejoin: miter; stroke-miterlimit: 4; fill: rgb(0,0,0); fill-rule: nonzero; opacity: 1;" vector-effect="non-scaling-stroke"  cx="0" cy="0" r="0.08384" />
</g>
		<g transform="matrix(27.84 -0.04 0.04 27.84 -20.76 1.2)" id="SvgjsG10244"  >
<circle style="stroke: none; stroke-width: 1; stroke-dasharray: none; stroke-linecap: butt; stroke-dashoffset: 0; stroke-linejoin: miter; stroke-miterlimit: 4; fill: rgb(0,0,0); fill-rule: nonzero; opacity: 1;" vector-effect="non-scaling-stroke"  cx="0" cy="0" r="0.0838" />
</g>
		<g transform="matrix(0.55 -27.84 27.84 0.55 -4.45 -10.47)" id="SvgjsG10244"  >
<circle style="stroke: none; stroke-width: 1; stroke-dasharray: none; stroke-linecap: butt; stroke-dashoffset: 0; stroke-linejoin: miter; stroke-miterlimit: 4; fill: rgb(0,0,0); fill-rule: nonzero; opacity: 1;" vector-effect="non-scaling-stroke"  cx="0" cy="0" r="0.08352" />
</g>
		<g transform="matrix(0.38 -27.84 27.84 0.38 -19.26 -8.42)" id="SvgjsG10244"  >
<circle style="stroke: none; stroke-width: 1; stroke-dasharray: none; stroke-linecap: butt; stroke-dashoffset: 0; stroke-linejoin: miter; stroke-miterlimit: 4; fill: rgb(0,0,0); fill-rule: nonzero; opacity: 1;" vector-effect="non-scaling-stroke"  cx="0" cy="0" r="0.08331" />
</g>
		<g transform="matrix(0.48 -27.84 27.84 0.48 23.16 -44.97)" id="SvgjsG10244"  >
<circle style="stroke: none; stroke-width: 1; stroke-dasharray: none; stroke-linecap: butt; stroke-dashoffset: 0; stroke-linejoin: miter; stroke-miterlimit: 4; fill: rgb(0,0,0); fill-rule: nonzero; opacity: 1;" vector-effect="non-scaling-stroke"  cx="0" cy="0" r="0.08323" />
</g>
		<g transform="matrix(27.84 -0.53 0.53 27.84 26.1 -16.78)" id="SvgjsG10244"  >
<circle style="stroke: none; stroke-width: 1; stroke-dasharray: none; stroke-linecap: butt; stroke-dashoffset: 0; stroke-linejoin: miter; stroke-miterlimit: 4; fill: rgb(0,0,0); fill-rule: nonzero; opacity: 1;" vector-effect="non-scaling-stroke"  cx="0" cy="0" r="0.0834" />
</g>
		<g transform="matrix(0.45 -27.84 27.84 0.45 47.64 4.17)" id="SvgjsG10244"  >
<circle style="stroke: none; stroke-width: 1; stroke-dasharray: none; stroke-linecap: butt; stroke-dashoffset: 0; stroke-linejoin: miter; stroke-miterlimit: 4; fill: rgb(0,0,0); fill-rule: nonzero; opacity: 1;" vector-effect="non-scaling-stroke"  cx="0" cy="0" r="0.08344" />
</g>
		<g transform="matrix(0.04 -27.84 27.84 0.04 -15.22 -22.89)" id="SvgjsG10244"  >
<circle style="stroke: none; stroke-width: 1; stroke-dasharray: none; stroke-linecap: butt; stroke-dashoffset: 0; stroke-linejoin: miter; stroke-miterlimit: 4; fill: rgb(0,0,0); fill-rule: nonzero; opacity: 1;" vector-effect="non-scaling-stroke"  cx="0" cy="0" r="0.08311" />
</g>
		<g transform="matrix(0.09 -27.84 27.84 0.09 23.72 10.47)" id="SvgjsG10244"  >
<circle style="stroke: none; stroke-width: 1; stroke-dasharray: none; stroke-linecap: butt; stroke-dashoffset: 0; stroke-linejoin: miter; stroke-miterlimit: 4; fill: rgb(0,0,0); fill-rule: nonzero; opacity: 1;" vector-effect="non-scaling-stroke"  cx="0" cy="0" r="0.08351" />
</g>
		<g transform="matrix(0.16 -27.84 27.84 0.16 16.68 8.78)" id="SvgjsG10244"  >
<circle style="stroke: none; stroke-width: 1; stroke-dasharray: none; stroke-linecap: butt; stroke-dashoffset: 0; stroke-linejoin: miter; stroke-miterlimit: 4; fill: rgb(0,0,0); fill-rule: nonzero; opacity: 1;" vector-effect="non-scaling-stroke"  cx="0" cy="0" r="0.08302" />
</g>
		<g transform="matrix(27.84 -0.43 0.43 27.84 37.44 -29.39)" id="SvgjsG10244"  >
<circle style="stroke: none; stroke-width: 1; stroke-dasharray: none; stroke-linecap: butt; stroke-dashoffset: 0; stroke-linejoin: miter; stroke-miterlimit: 4; fill: rgb(0,0,0); fill-rule: nonzero; opacity: 1;" vector-effect="non-scaling-stroke"  cx="0" cy="0" r="0.08325" />
</g>
		<g transform="matrix(27.84 -0.26 0.26 27.84 20.58 14.55)" id="SvgjsG10244"  >
<circle style="stroke: none; stroke-width: 1; stroke-dasharray: none; stroke-linecap: butt; stroke-dashoffset: 0; stroke-linejoin: miter; stroke-miterlimit: 4; fill: rgb(0,0,0); fill-rule: nonzero; opacity: 1;" vector-effect="non-scaling-stroke"  cx="0" cy="0" r="0.08299" />
</g>
		<g transform="matrix(0.2 -27.84 27.84 0.2 32.62 14.74)" id="SvgjsG10244"  >
<circle style="stroke: none; stroke-width: 1; stroke-dasharray: none; stroke-linecap: butt; stroke-dashoffset: 0; stroke-linejoin: miter; stroke-miterlimit: 4; fill: rgb(0,0,0); fill-rule: nonzero; opacity: 1;" vector-effect="non-scaling-stroke"  cx="0" cy="0" r="0.08342" />
</g>
		<g transform="matrix(27.84 -0.35 0.35 27.84 7.96 -19.17)" id="SvgjsG10244"  >
<circle style="stroke: none; stroke-width: 1; stroke-dasharray: none; stroke-linecap: butt; stroke-dashoffset: 0; stroke-linejoin: miter; stroke-miterlimit: 4; fill: rgb(0,0,0); fill-rule: nonzero; opacity: 1;" vector-effect="non-scaling-stroke"  cx="0" cy="0" r="0.08296" />
</g>
		<g transform="matrix(27.84 -0.56 0.56 27.84 -0.01 -15.29)" id="SvgjsG10244"  >
<circle style="stroke: none; stroke-width: 1; stroke-dasharray: none; stroke-linecap: butt; stroke-dashoffset: 0; stroke-linejoin: miter; stroke-miterlimit: 4; fill: rgb(0,0,0); fill-rule: nonzero; opacity: 1;" vector-effect="non-scaling-stroke"  cx="0" cy="0" r="0.08304" />
</g>
		<g transform="matrix(27.84 0 0 27.84 -6.98 14.01)" id="SvgjsG10244"  >
<circle style="stroke: none; stroke-width: 1; stroke-dasharray: none; stroke-linecap: butt; stroke-dashoffset: 0; stroke-linejoin: miter; stroke-miterlimit: 4; fill: rgb(0,0,0); fill-rule: nonzero; opacity: 1;" vector-effect="non-scaling-stroke"  cx="0" cy="0" r="0.08326" />
</g>
</g>
</g>
</svg>